<mxfile host="app.diagrams.net" modified="2024-03-12T12:46:28.482Z" agent="Mozilla/5.0 (X11; Linux x86_64) AppleWebKit/537.36 (KHTML, like Gecko) Chrome/122.0.0.0 Safari/537.36" version="24.0.0" etag="dCl8vC67fGu1ncgHBxmi" type="github">
  <diagram name="Halaman-1" id="-j4WbNHj64i6U229TLX3">
    <mxGraphModel>
      <root>
        <mxCell id="0" />
        <mxCell id="1" parent="0" />
      </root>
    </mxGraphModel>
  </diagram>
</mxfile>
